<svg xmlns="http://www.w3.org/2000/svg" 
    xmlns:xlink="http://www.w3.org/1999/xlink" viewBox="0 0 721.47 307.83">
    <defs>
        <style>.cls-1{fill:none;}.cls-2{clip-path:url(#clip-path);}.cls-3{fill:#00bcb4;}.cls-4{fill:#00675f;}.cls-5{fill:#183029;}</style>
        <clipPath id="clip-path">
            <rect class="cls-1" width="721.47" height="307.83"/>
        </clipPath>
    </defs>
    <title>europcar_logo</title>
    <g id="Calque_2" data-name="Calque 2">
        <g id="Calque_1-2" data-name="Calque 1">
            <g class="cls-2">
                <path class="cls-3" d="M98.46,121.7H206.3c4.15,0,7.51-3.67,7.51-8.2v-29c0-4.53-3.36-8.2-7.51-8.2H98.46C68,76.28,42.8,86.54,25.58,105.95,8.85,124.82,0,151.85,0,184.13c0,17.44,2.7,33.53,7.92,47.78a101.87,101.87,0,0,0,17.53,30.7A87.58,87.58,0,0,0,43.92,279.2c15.25,10.18,33.73,15.46,54.54,15.46H206.3c4.15,0,7.51-3.67,7.51-8.2V219.57a7.51,7.51,0,0,0-7.51-7.51H175.58a7.51,7.51,0,0,0-7.51,7.51v29.67H99.69c-12.83,0-25.72-4-35.87-12.44-11.41-9.48-19.35-29.1-19.88-50.4,0-.75,0-1.5,0-2.27,0-36.79,19.88-62.43,54.55-62.43"/>
                <path class="cls-4" d="M98.46,45.75H206.3a7.51,7.51,0,0,0,7.51-7.51V7.51A7.51,7.51,0,0,0,206.3,0H98.46C68,0,42.8,9.4,25.58,27.17,8.85,44.45,0,69.21,0,98.77c0,16,2.7,30.7,7.92,43.76a91.64,91.64,0,0,0,17.53,28.11,85.47,85.47,0,0,0,18.47,15.2C59.17,195.15,77.64,200,98.46,200H206.3a7.51,7.51,0,0,0,7.51-7.51V161.75a7.51,7.51,0,0,0-7.51-7.51H99.69c-12.83,0-25.72-3.67-35.87-11.4-11.41-8.68-19.35-22.5-19.88-42,0-.69,0-1.38,0-2.08,0-33.69,19.88-53,54.55-53"/>
                <path class="cls-5" d="M25.58,105.95A95.41,95.41,0,0,0,6.73,139.38c.38,1.05.77,2.1,1.19,3.14a91.64,91.64,0,0,0,17.53,28.11,85.47,85.47,0,0,0,18.48,15.19h0c0-.57,0-1.13,0-1.71,0-18.79,5.2-34.66,14.89-45.7-8.65-8.69-14.41-21.1-14.86-37.58,0-.69,0-1.38,0-2.08a77.14,77.14,0,0,1,.47-8.54,82.69,82.69,0,0,0-18.79,15.72"/>
                <polygon class="cls-4" points="253.16 5.48 303.29 5.48 303.29 16.39 264.75 16.39 264.75 35.72 302.15 35.72 302.15 46.52 264.75 46.52 264.75 66.86 303.29 66.86 303.29 77.78 253.16 77.78 253.16 5.48"/>
                <path class="cls-4" d="M365.47,24.24V53.68c0,15.57-12.39,25.58-26.71,25.58-15.69,0-26.6-10-26.6-25.58V24.24h11.59V53.91c0,9,6.37,14.66,15,14.66s15.12-5.68,15.12-14.66V24.24Z"/>
                <path class="cls-4" d="M375.69,77.78V46.86c0-13.19,8.64-24.1,25.58-24.1a28.6,28.6,0,0,1,15.12,4.43l-6,9.55a14.42,14.42,0,0,0-9.09-3.07c-8.64,0-14,5.46-14,13.53V77.78Z"/>
                <path class="cls-4" d="M447.42,22.76c16.71,0,30.24,12.5,30.24,28.3,0,16-13.53,28.3-30.24,28.3s-29.56-12.28-29.56-28.3c0-15.8,13-28.3,29.56-28.3m0,45.92c11,0,18.19-7.16,18.19-17.62,0-9.78-7.16-17.62-18.19-17.62-10.46,0-17.51,7.73-17.51,17.62,0,10.46,7,17.62,17.51,17.62"/>
                <path class="cls-4" d="M516.3,79.37c-7.73,0-14.89-3.41-18.53-7.39V96.65H486.29V51.18c0-16.37,12.28-28.42,30-28.42,16.48,0,29.78,12.39,29.78,28.3,0,15.57-12.62,28.3-29.78,28.3m0-45.92c-10.91,0-18,7.28-18,17.85,0,9.66,7,17.28,18,17.28S534,61.07,534,51.29c0-10.68-7.28-17.85-17.73-17.85"/>
                <path class="cls-4" d="M598.48,41.29a20,20,0,0,0-16.37-7.84c-9.89,0-17.39,7.39-17.39,17.62,0,10.46,7.16,17.62,17.51,17.62,7.5,0,12.5-3,16.82-8.64l8.41,7.16c-6.25,8-14.55,12.16-25.35,12.16-16.6,0-29.44-12.16-29.44-28.3,0-15.12,12.39-28.3,29.56-28.3,10.46,0,18.87,4.21,24.89,11.93Z"/>
                <path class="cls-4" d="M640.19,22.76c17.85,0,30.12,11.82,30.12,28.3V77.78H659.86V72.21a29.92,29.92,0,0,1-19.66,7.16c-16.82,0-29.67-12.73-29.67-28.3,0-15.91,12.39-28.3,29.67-28.3m0,45.81c10.23,0,18.64-7.73,18.64-17.5,0-10-8.07-17.62-18.64-17.62-10.23,0-18.3,7.62-18.3,17.62,0,9.78,7.84,17.5,18.3,17.5"/>
                <path class="cls-4" d="M680.77,77.78V46.86c0-13.19,8.64-24.1,25.58-24.1a28.6,28.6,0,0,1,15.12,4.43l-6,9.55a14.42,14.42,0,0,0-9.09-3.07c-8.64,0-14,5.46-14,13.53V77.78Z"/>
                <polygon class="cls-4" points="317.5 114.93 328.87 114.93 328.87 187.22 317.27 187.22 317.27 134.59 291.01 168.7 264.75 134.59 264.75 187.22 253.16 187.22 253.16 114.93 264.53 114.93 291.01 149.37 317.5 114.93"/>
                <path class="cls-4" d="M368.87,132.21c16.71,0,30.24,12.5,30.24,28.31,0,16-13.53,28.3-30.24,28.3s-29.56-12.28-29.56-28.3c0-15.8,13-28.31,29.56-28.31m0,45.92c11,0,18.19-7.16,18.19-17.62,0-9.78-7.16-17.62-18.19-17.62-10.46,0-17.51,7.73-17.51,17.62,0,10.46,7,17.62,17.51,17.62"/>
                <path class="cls-4" d="M437.41,188.82c-17.73,0-30-12-30-28.42V114.93h11.48V139.6c3.64-4,10.8-7.39,18.53-7.39,17.16,0,29.78,12.73,29.78,28.31,0,15.91-13.3,28.3-29.78,28.3m0-45.81c-10.91,0-18,7.62-18,17.28,0,10.57,7,17.85,18,17.85,10.46,0,17.73-7.16,17.73-17.85,0-9.78-6.82-17.28-17.73-17.28"/>
                <path class="cls-4" d="M475,112.2h12.28v12.62H475Zm.34,21.48H487v53.54h-11.6Z"/>
                <path class="cls-4" d="M509.59,114.93v48.76c0,9.09,4.77,14.44,13.64,14.44,4.55,0,7.73-1,12.39-4.32L541,182.9a27.13,27.13,0,0,1-17.73,5.91c-14.78,0-25.23-8.64-25.23-25.24V114.93Z"/>
                <path class="cls-4" d="M545.62,112.2H557.9v12.62H545.62Zm.34,21.48h11.59v53.54H546Z"/>
                <path class="cls-4" d="M582.45,114.93v18.76h29.21V143.8H582.45v19.89c0,9.09,4.77,14.44,13.64,14.44a20.08,20.08,0,0,0,12.16-4l5.68,8.64a27.17,27.17,0,0,1-17.85,6c-14.89,0-25.24-8.87-25.24-24.78V114.93Z"/>
                <polygon class="cls-4" points="665.43 133.68 678.16 133.68 634.28 206.21 620.75 206.21 640.76 173.7 615.75 133.68 628.94 133.68 647.01 163.58 665.43 133.68"/>
                <path class="cls-4" d="M248,252.93c0-20.57,16.14-37.85,39.44-37.85,15,0,25.23,5.34,33.53,14.32l-8.75,7.84a31.82,31.82,0,0,0-24.67-11c-16.6,0-27.17,12-27.17,26.71,0,15.23,11,26.49,28.08,26.49,13.41,0,23.08-8.53,25.8-19H288.85V249.52h38.88v3.41c0,20.92-16.71,37.63-39.22,37.63-24.78,0-40.47-17.62-40.47-37.63"/>
                <path class="cls-4" d="M337.5,289V258c0-13.19,8.64-24.1,25.58-24.1a28.6,28.6,0,0,1,15.12,4.43l-6,9.55a14.41,14.41,0,0,0-9.09-3.07c-8.64,0-14,5.46-14,13.53V289Z"/>
                <path class="cls-4" d="M407,233.94c16.71,0,30.24,12.5,30.24,28.3,0,16-13.53,28.3-30.24,28.3s-29.56-12.28-29.56-28.3c0-15.8,13-28.3,29.56-28.3m0,45.92c11,0,18.19-7.16,18.19-17.62,0-9.78-7.16-17.62-18.19-17.62-10.46,0-17.51,7.73-17.51,17.62,0,10.46,7,17.62,17.51,17.62"/>
                <path class="cls-4" d="M497.77,235.42v29.44c0,15.57-12.39,25.58-26.71,25.58-15.69,0-26.6-10-26.6-25.58V235.42h11.6v29.67c0,9,6.36,14.67,15,14.67s15.12-5.68,15.12-14.67V235.42Z"/>
                <path class="cls-4" d="M537.1,290.55c-7.73,0-14.89-3.41-18.53-7.39v24.67H507.09V262.36c0-16.37,12.28-28.42,30-28.42,16.48,0,29.78,12.39,29.78,28.3,0,15.57-12.62,28.31-29.78,28.31m0-45.92c-10.91,0-18,7.28-18,17.85,0,9.66,7,17.28,18,17.28s17.73-7.5,17.73-17.28c0-10.69-7.28-17.85-17.73-17.85"/>
            </g>
        </g>
    </g>
</svg>